<?xml version="1.0" standalone="no"?>
<!DOCTYPE svg PUBLIC "-//W3C//DTD SVG 20010904//EN"
 "http://www.w3.org/TR/2001/REC-SVG-20010904/DTD/svg10.dtd">
<svg version="1.0" xmlns="http://www.w3.org/2000/svg"
 width="512.000000pt" height="512.000000pt" viewBox="0 0 512.000000 512.000000"
 preserveAspectRatio="xMidYMid meet">
<metadata>
Created by potrace 1.14, written by Peter Selinger 2001-2017
</metadata>
<g transform="translate(0.000000,512.000000) scale(0.100000,-0.100000)"
fill="#000000" stroke="none">
<path d="M1612 4024 c-35 -17 -63 -41 -80 -67 l-27 -41 -3 -1346 -2 -1346 23
-45 c16 -29 40 -54 72 -74 l48 -30 917 0 917 0 48 30 c32 20 56 45 72 74 l23
44 0 1337 0 1337 -23 44 c-16 29 -40 54 -72 74 l-48 30 -906 3 -906 2 -53 -26z
m1639 -200 c53 -27 59 -59 59 -304 0 -168 -3 -229 -14 -255 -28 -67 -3 -65
-736 -65 -733 0 -708 -2 -736 65 -18 44 -20 454 -3 504 7 18 26 41 43 52 30
18 60 19 694 19 582 0 667 -2 693 -16z m-1266 -845 c61 -17 130 -93 144 -159
20 -95 -18 -182 -103 -230 -162 -93 -354 47 -315 229 8 37 22 64 52 96 62 67
134 88 222 64z m640 0 c61 -17 130 -93 144 -159 20 -95 -18 -182 -103 -230
-162 -93 -354 47 -315 229 8 37 22 64 52 96 62 67 134 88 222 64z m636 0 c150
-45 202 -244 93 -353 -86 -86 -229 -85 -310 1 -82 87 -72 236 21 310 62 50
124 63 196 42z m-1276 -640 c61 -17 130 -93 144 -159 20 -95 -18 -182 -103
-230 -71 -41 -141 -41 -212 0 -122 70 -146 222 -51 325 62 67 134 88 222 64z
m640 0 c61 -17 130 -93 144 -159 20 -95 -18 -182 -103 -230 -71 -41 -141 -41
-212 0 -122 70 -146 222 -51 325 62 67 134 88 222 64z m636 0 c150 -45 202
-244 93 -353 -86 -86 -229 -85 -310 1 -82 87 -72 236 21 310 62 50 124 63 196
42z m-636 -640 c61 -17 130 -93 144 -159 20 -95 -18 -182 -103 -230 l-51 -30
-375 0 -375 0 -51 30 c-122 70 -146 222 -51 325 67 73 73 74 472 75 224 0 364
-4 390 -11z m636 0 c150 -45 202 -244 93 -353 -86 -86 -229 -85 -310 1 -82 87
-72 236 21 310 62 50 124 63 196 42z"/>
</g>
</svg>
